<svg width="82" height="24" viewBox="0 0 82 24" fill="none" xmlns="http://www.w3.org/2000/svg">
<g clip-path="url(#clip0)">
<path d="M79.0755 24H2.86713C1.26154 24 0 22.7428 0 21.1428V2.85712C0 1.25712 1.26154 -1.86334e-05 2.86713 -1.86334e-05H79.0755C80.6811 -0.0571615 81.9426 1.19998 82 2.79998V2.85712V21.1428C82 22.7428 80.7385 24 79.1329 24H79.0755Z" fill="#A6A6A6"/>
<path d="M79.0755 23.4286H2.92447C1.66294 23.4857 0.630768 22.4572 0.573425 21.2V21.1429V2.85716C0.573425 1.60001 1.60559 0.571442 2.86713 0.571442H2.92447H79.1329C80.3944 0.571442 81.4839 1.60001 81.4839 2.85716V21.1429C81.4266 22.4 80.3944 23.4286 79.0755 23.4286Z" fill="black"/>
<path d="M18.2923 11.8857C18.2923 9.94286 19.8979 9.02858 19.9552 8.97144C19.3244 8.00001 18.2349 7.42858 17.0881 7.42858C15.9412 7.31429 14.737 8.11429 14.1636 8.11429C13.5328 8.11429 12.6154 7.42858 11.5832 7.42858C10.2643 7.42858 9.06011 8.17144 8.42934 9.37144C7.05311 11.7143 8.08528 15.2 9.40416 17.0857C10.0349 18 10.8377 19.0286 11.8126 19.0286C12.7874 18.9714 13.1888 18.4 14.3356 18.4C15.5398 18.4 15.8839 19.0286 16.8587 18.9714C17.8909 18.9714 18.579 18.0572 19.2098 17.0857C19.9552 16 20.2993 14.9714 20.2993 14.9143C20.2993 14.9143 18.2923 14.1714 18.2923 11.8857ZM16.3426 6.17144C16.9161 5.48572 17.2028 4.62858 17.1454 3.71429C16.4 3.77144 15.4251 4.22858 14.8517 4.85715C14.3356 5.42858 13.9342 6.34287 14.0489 7.20001C14.9091 7.31429 15.7692 6.80001 16.3426 6.17144Z" fill="white"/>
<path d="M32.5133 18.9143H31.137L30.3916 16.5714H27.7538L27.0084 18.9143H25.6895L28.3272 10.9143H29.9328L32.5133 18.9143ZM30.1622 15.5429L29.4741 13.4857L29.0727 12L28.6713 13.4857L27.9832 15.5429H30.1622ZM39.2224 15.9429C39.2797 16.8 38.993 17.6571 38.4196 18.2857C37.9608 18.8 37.33 19.0286 36.6419 19.0286C35.8965 19.0286 35.3231 18.7429 34.979 18.2286V21.2571H33.6601V15.0286L33.6028 13.1429H34.7496L34.807 14.0571C35.2084 13.3714 35.9538 12.9714 36.7566 13.0286C37.4447 13.0286 38.0182 13.3143 38.4769 13.8286C38.993 14.4 39.2797 15.1429 39.2224 15.9429ZM37.9035 16C37.9035 15.4286 37.7888 14.9714 37.5021 14.6286C37.2154 14.2286 36.8713 14.0571 36.3552 14.0571C36.0112 14.0571 35.7245 14.1714 35.4951 14.3429C35.2084 14.5714 35.0937 14.8 34.979 15.1429L34.9217 15.5429V16.5143C34.9217 16.9143 35.0363 17.2571 35.3231 17.6C35.6098 17.8857 35.8965 18.0571 36.3552 18.0571C36.814 18.0571 37.2154 17.8857 37.5021 17.4857C37.7888 17.0286 37.9035 16.5143 37.9035 16ZM45.8741 15.9429C45.9314 16.8 45.6447 17.6571 45.0713 18.2857C44.6126 18.8 43.9818 19.0286 43.2937 19.0286C42.5482 19.0286 41.9748 18.7429 41.6307 18.2286V21.2571H40.3119V15.0286L40.2545 13.1429H41.4014L41.5161 14.0571C41.9175 13.3714 42.6629 12.9714 43.4657 13.0286C44.1538 13.0286 44.7272 13.3143 45.186 13.8286C45.6447 14.3429 45.8741 15.0857 45.8741 15.9429ZM44.5552 16C44.5552 15.4286 44.4405 14.9714 44.1538 14.6286C43.8671 14.2286 43.5231 14.0571 43.007 14.0571C42.6629 14.0571 42.3762 14.1714 42.1468 14.3429C41.8601 14.5714 41.7454 14.8 41.6307 15.1429L41.5734 15.5429V16.5143C41.5734 16.9143 41.6881 17.2571 41.9748 17.6C42.2615 17.8857 42.5482 18.0571 43.007 18.0571C43.4657 18.0571 43.8671 17.8857 44.1538 17.4857C44.4405 17.0857 44.5552 16.6286 44.5552 16ZM53.386 16.6286C53.386 17.3143 53.1566 17.8857 52.6979 18.2857C52.1818 18.7429 51.4363 18.9714 50.5189 18.9714C49.6587 18.9714 48.9706 18.8 48.4545 18.4571L48.7412 17.3714C49.3147 17.7143 49.9454 17.8857 50.6335 17.8857C51.0923 17.8857 51.4937 17.7714 51.7804 17.5429C52.0671 17.3143 52.1818 17.0286 52.1818 16.6857C52.1818 16.3429 52.0671 16.1143 51.8377 15.8857C51.6084 15.6571 51.2643 15.4857 50.7482 15.2571C49.3147 14.7429 48.6266 14 48.6266 12.9714C48.6266 12.3429 48.8559 11.7714 49.372 11.3714C49.8881 10.9714 50.5189 10.7429 51.3217 10.7429C52.0671 10.7429 52.6405 10.8571 53.1566 11.1429L52.8126 12.1714C52.3538 11.9429 51.7804 11.8286 51.2643 11.8286C50.8056 11.8286 50.4615 11.9429 50.1748 12.1714C49.9454 12.3429 49.8307 12.6286 49.8307 12.9143C49.8307 13.2571 49.9454 13.4857 50.1748 13.7143L51.3217 14.3429C51.8951 14.5714 52.4112 14.8571 52.8699 15.3143C53.214 15.6571 53.386 16.1143 53.386 16.6286ZM57.6293 14.1143H56.1958V16.9143C56.1958 17.6 56.4252 18 56.9412 18L57.5147 17.9429L57.572 18.9143C57.3426 19.0286 56.9986 19.0286 56.5398 19.0286C56.0238 19.0286 55.6224 18.8571 55.3356 18.5714C55.0489 18.2857 54.8769 17.7714 54.8769 17.0286V14.1143H54.1314V13.1429H54.9916V12.1143L56.2531 11.7143V13.1429H57.6867V14.1143H57.6293ZM64.0517 15.9429C64.0517 16.8 63.8224 17.5429 63.3063 18.1143C62.7902 18.6857 62.0447 18.9714 61.1846 18.9714C60.3244 18.9714 59.6363 18.6857 59.1203 18.1143C58.6042 17.5429 58.3748 16.8571 58.3748 16C58.3748 15.0857 58.6615 14.4 59.1776 13.8286C59.6937 13.2571 60.3818 12.9714 61.2993 12.9714C62.1594 12.9714 62.8475 13.2571 63.3636 13.8286C63.8223 14.4 64.0517 15.0857 64.0517 15.9429ZM62.7328 16C62.7328 15.4857 62.6182 15.0286 62.3888 14.6286C62.1021 14.1714 61.758 13.9429 61.2419 13.9429C60.7259 13.9429 60.3244 14.1714 60.0377 14.6286C59.8084 15.0286 59.6937 15.4857 59.6937 16C59.6937 16.5143 59.8084 16.9714 60.0377 17.3714C60.3244 17.8286 60.7258 18.0571 61.1846 18.0571C61.7007 18.0571 62.0447 17.8286 62.3314 17.3714C62.6182 17.0286 62.7328 16.5143 62.7328 16ZM68.2951 14.2857L67.8937 14.2286C67.4923 14.2286 67.0909 14.4 66.8615 14.7429C66.6321 15.0286 66.5175 15.4286 66.5175 15.8857V18.9143H65.1986V14.9714L65.1412 13.1429H66.2881L66.3454 14.2286H66.4028C66.5175 13.8857 66.7468 13.5429 67.0335 13.3143C67.3203 13.0857 67.607 13.0286 67.951 13.0286H68.2951V14.2857ZM74.0867 15.7714L74.0293 16.3429H70.13C70.13 16.8571 70.3021 17.3143 70.7035 17.6571C71.0475 17.9429 71.4489 18.0571 71.965 18.0571C72.5384 18.0571 73.0545 17.9429 73.5133 17.7714L73.7426 18.6857C73.1119 18.9143 72.4811 19.0286 71.793 19.0286C70.9902 19.0857 70.2447 18.8 69.6713 18.2286C69.1552 17.6571 68.8685 16.9143 68.9258 16.1143C68.9258 15.2571 69.1552 14.5143 69.6713 13.9429C70.13 13.3143 70.8755 13.0286 71.6783 13.0286C72.5384 13.0286 73.1692 13.3143 73.5706 13.9429C73.9147 14.4 74.0867 15.0286 74.0867 15.7714ZM72.8251 15.4286C72.8251 15.0857 72.7678 14.7429 72.5958 14.4571C72.3664 14.1143 71.965 13.9429 71.5636 13.9429C71.1622 13.9429 70.8182 14.1143 70.5314 14.4571C70.3021 14.7429 70.1874 15.0857 70.13 15.4286H72.8251Z" fill="white"/>
<path d="M29.7609 6.00001C29.7609 6.68573 29.5315 7.25716 29.1301 7.60001C28.7287 7.94287 28.1553 8.1143 27.4098 8.1143L26.4923 8.05716V4.17144L27.5818 4.1143C28.2699 4.1143 28.786 4.28573 29.1301 4.57144C29.5888 4.9143 29.7609 5.37144 29.7609 6.00001ZM29.0727 6.00001C29.0727 5.54287 28.9581 5.20001 28.7287 4.97144C28.4993 4.74287 28.0979 4.62859 27.6392 4.62859L27.1231 4.68573V7.60001H27.5818C28.0406 7.60001 28.442 7.48573 28.7287 7.20001C28.9581 6.9143 29.0727 6.5143 29.0727 6.00001ZM33.3161 6.62859C33.3161 7.08573 33.2014 7.42859 32.9147 7.7143C32.628 8.00001 32.2839 8.17144 31.8825 8.17144C31.4811 8.17144 31.1371 8.05716 30.9077 7.77144C30.621 7.42859 30.5063 7.08573 30.5063 6.68573C30.5063 6.22859 30.621 5.88573 30.9077 5.60001C31.1371 5.3143 31.4811 5.20001 31.9399 5.20001C32.3413 5.20001 32.6853 5.3143 32.972 5.60001C33.2014 5.82859 33.3161 6.17144 33.3161 6.62859ZM32.628 6.62859C32.628 6.34287 32.5706 6.17144 32.456 5.94287C32.3413 5.7143 32.1119 5.60001 31.8825 5.60001C31.6532 5.60001 31.4238 5.7143 31.3091 5.94287L31.1371 6.62859C31.1371 6.9143 31.1944 7.08573 31.3091 7.3143C31.4238 7.54287 31.6532 7.65716 31.8825 7.65716C32.1119 7.65716 32.3413 7.54287 32.456 7.3143C32.5706 7.14287 32.628 6.9143 32.628 6.62859ZM38.0755 5.25716L37.1581 8.05716H36.5846L36.2406 6.85716L36.0112 5.94287L35.7818 6.85716L35.3804 8.05716H34.807L33.9469 5.25716H34.5776L34.9217 6.62859L35.0937 7.54287L35.3231 6.62859L35.7245 5.25716H36.2406L36.642 6.57144L36.8713 7.48573L37.0434 6.57144L37.3874 5.25716H38.0755ZM41.3441 8.05716H40.7133V6.45716C40.7133 5.94287 40.5413 5.7143 40.1399 5.7143C39.9678 5.7143 39.7958 5.77144 39.6811 5.94287C39.5664 6.05716 39.5091 6.22859 39.5091 6.40001V8.05716H38.8783V6.05716V5.25716H39.4518L39.5091 5.7143L39.8532 5.37144C40.0252 5.25716 40.1972 5.20001 40.4266 5.20001C40.7133 5.20001 40.9427 5.25716 41.1147 5.42859C41.3441 5.65716 41.4588 5.94287 41.4588 6.34287V8.05716H41.3441ZM43.1217 8.05716H42.4909V3.94287H43.1217V8.05716ZM46.849 6.62859C46.849 7.08573 46.7343 7.42859 46.4476 7.7143C46.1609 8.00001 45.8168 8.17144 45.4154 8.17144C45.014 8.17144 44.6699 8.05716 44.4406 7.77144C44.2112 7.48573 44.0392 7.14287 44.0392 6.74287C44.0392 6.28573 44.1539 5.94287 44.4406 5.65716C44.6699 5.37144 45.0713 5.25716 45.4727 5.25716C45.8741 5.25716 46.2182 5.37144 46.5049 5.65716C46.7343 5.82859 46.849 6.17144 46.849 6.62859ZM46.2182 6.62859C46.2182 6.34287 46.1609 6.17144 46.0462 5.94287C45.9315 5.7143 45.7021 5.60001 45.4727 5.60001C45.2434 5.60001 45.014 5.7143 44.8993 5.94287C44.7846 6.1143 44.7273 6.34287 44.7273 6.62859C44.7273 6.9143 44.7846 7.08573 44.8993 7.3143C45.014 7.54287 45.2434 7.65716 45.4727 7.65716C45.7021 7.65716 45.9315 7.54287 46.0462 7.3143C46.1609 7.14287 46.2182 6.9143 46.2182 6.62859ZM49.9455 8.05716H49.372L49.3147 7.7143C49.1427 8.00001 48.856 8.1143 48.4546 8.1143C48.1679 8.1143 47.9385 8.05716 47.8238 7.88573C47.6518 7.7143 47.5944 7.54287 47.5944 7.3143C47.5944 6.97144 47.7665 6.68573 48.0532 6.5143C48.3972 6.28573 48.856 6.22859 49.2574 6.22859V6.17144C49.2574 5.77144 49.0853 5.60001 48.6839 5.60001C48.3972 5.60001 48.1678 5.65716 47.9385 5.82859L47.8238 5.42859C48.1105 5.25716 48.4546 5.20001 48.7986 5.20001C49.5441 5.20001 49.9455 5.60001 49.9455 6.34287V7.37144V8.05716ZM49.2574 7.08573V6.62859C48.5693 6.62859 48.2252 6.80001 48.2252 7.20001L48.3399 7.54287L48.6839 7.65716L49.0853 7.54287L49.3147 7.20001L49.2574 7.08573ZM53.5581 8.05716H52.9846L52.9273 7.60001C52.7553 7.94287 52.4685 8.1143 52.0098 8.1143C51.6658 8.1143 51.379 8.00001 51.1497 7.7143C50.9203 7.42859 50.8056 7.08573 50.8056 6.68573C50.8056 6.22859 50.9203 5.88573 51.1497 5.60001C51.379 5.3143 51.6658 5.20001 52.0098 5.20001C52.4112 5.20001 52.6406 5.3143 52.8126 5.60001V3.94287H53.4434V7.3143L53.5581 8.05716ZM52.8699 6.85716V6.40001V6.22859L52.6406 5.82859C52.5259 5.7143 52.4112 5.65716 52.2392 5.65716C52.0098 5.65716 51.8378 5.77144 51.6658 5.94287C51.5511 6.1143 51.4364 6.34287 51.4364 6.68573C51.4364 6.97144 51.4937 7.20001 51.6084 7.37144C51.7231 7.54287 51.9525 7.65716 52.1818 7.65716C52.4112 7.65716 52.5832 7.60001 52.6979 7.42859C52.8126 7.25716 52.8699 7.08573 52.8699 6.85716ZM59.0056 6.62859C59.0056 7.08573 58.8909 7.42859 58.6042 7.7143C58.3175 8.00001 57.9734 8.17144 57.572 8.17144C57.1706 8.17144 56.8266 8.05716 56.5972 7.77144C56.3678 7.48573 56.1958 7.14287 56.1958 6.74287C56.1958 6.28573 56.3105 5.94287 56.5972 5.65716C56.8266 5.3143 57.1706 5.20001 57.6294 5.20001C58.0308 5.20001 58.3748 5.3143 58.6616 5.60001C58.8336 5.82859 59.0056 6.17144 59.0056 6.62859ZM58.3175 6.62859C58.3175 6.34287 58.2602 6.17144 58.1455 5.94287C58.0308 5.7143 57.8014 5.60001 57.572 5.60001C57.3427 5.60001 57.1133 5.7143 56.9986 5.94287C56.8839 6.1143 56.8266 6.34287 56.8266 6.62859C56.8266 6.9143 56.8839 7.08573 56.9986 7.3143C57.1133 7.54287 57.3427 7.65716 57.572 7.65716C57.8014 7.65716 58.0308 7.54287 58.1455 7.3143C58.2602 7.14287 58.3175 6.9143 58.3175 6.62859ZM62.3888 8.05716H61.7581V6.45716C61.7581 5.94287 61.586 5.7143 61.1846 5.7143C61.0126 5.7143 60.8406 5.77144 60.7259 5.94287C60.6112 6.05716 60.5539 6.22859 60.5539 6.40001V8.05716H59.9231V6.05716V5.25716H60.4965V5.65716L60.8406 5.3143C61.0126 5.20001 61.1846 5.14287 61.414 5.14287C61.7007 5.14287 61.9301 5.20001 62.1021 5.37144C62.3315 5.60001 62.4462 5.88573 62.4462 6.28573L62.3888 8.05716ZM66.6895 5.7143H66.0014V7.08573C66.0014 7.42859 66.1161 7.60001 66.3455 7.60001L66.6322 7.54287V8.00001L66.1161 8.05716C65.8867 8.05716 65.6574 8.00001 65.5427 7.82859C65.428 7.65716 65.3133 7.42859 65.3133 7.08573V5.7143H64.9119V5.25716H65.3133V4.68573L65.9441 4.5143V5.20001H66.6322L66.6895 5.7143ZM70.0154 8.05716H69.3846V6.45716C69.3846 5.94287 69.2126 5.7143 68.8112 5.7143C68.5245 5.7143 68.2951 5.88573 68.1804 6.17144L68.1231 6.40001V8.1143H67.4923V3.94287H68.1231V5.65716C68.2951 5.37144 68.5818 5.20001 68.9832 5.20001C69.27 5.20001 69.442 5.25716 69.614 5.42859C69.8434 5.65716 69.9581 5.94287 69.9581 6.40001L70.0154 8.05716ZM73.5133 6.5143V6.80001H71.621C71.621 7.08573 71.7357 7.3143 71.9077 7.42859C72.0797 7.54287 72.2518 7.60001 72.5385 7.60001L73.2839 7.48573L73.3986 7.94287C73.1119 8.05716 72.8252 8.1143 72.4238 8.1143C71.9651 8.1143 71.621 8.00001 71.3916 7.7143C71.1623 7.42859 70.9902 7.08573 70.9902 6.68573C70.9902 6.28573 71.1049 5.88573 71.3343 5.60001C71.5637 5.3143 71.9077 5.14287 72.3091 5.14287C72.7105 5.14287 73.0546 5.3143 73.2266 5.60001C73.3986 5.88573 73.5133 6.17144 73.5133 6.5143ZM72.8825 6.34287L72.7678 5.88573C72.6532 5.7143 72.4811 5.60001 72.2518 5.60001C72.0224 5.60001 71.8504 5.65716 71.7357 5.82859C71.621 5.94287 71.5637 6.1143 71.5637 6.34287H72.8825Z" fill="white"/>
</g>
<defs>
<clipPath id="clip0">
<rect width="82" height="24" fill="white"/>
</clipPath>
</defs>
</svg>
