<svg width="82" height="24" viewBox="0 0 82 24" fill="none" xmlns="http://www.w3.org/2000/svg">
<g clip-path="url(#clip0)">
<path d="M79.0755 23.998H2.86713C1.26154 23.998 0 22.741 0 21.1411V2.85684C0 1.25697 1.26154 -7.98147e-05 2.86713 -7.98147e-05H79.0755C80.6811 -0.0572182 81.9426 1.19983 82 2.7997V2.85684V21.1411C82 22.741 80.7385 23.998 79.1329 23.998H79.0755Z" fill="#A6A6A6"/>
<path d="M79.0756 23.4268H2.92454C1.663 23.4839 0.630829 22.4554 0.573486 21.1984V21.1413V2.85698C0.573486 1.59993 1.60565 0.571442 2.86719 0.571442H2.92454H79.1329C80.3945 0.571442 81.484 1.59993 81.484 2.85698V21.1413C81.4266 22.3983 80.3945 23.4268 79.0756 23.4268Z" fill="black"/>
<path fill-rule="evenodd" clip-rule="evenodd" d="M22.225 6.81669C22.3546 6.71951 22.4503 6.58402 22.4986 6.42942C22.5469 6.27482 22.5453 6.10895 22.4941 5.95529C22.4429 5.80164 22.3446 5.66799 22.2132 5.57329C22.0818 5.47858 21.924 5.42762 21.762 5.42762C21.6 5.42762 21.4422 5.47858 21.3108 5.57329C21.1794 5.66799 21.0811 5.80164 21.0299 5.95529C20.9787 6.10895 20.9771 6.27482 21.0254 6.42942C21.0737 6.58402 21.1694 6.71951 21.299 6.81669V11.7299H20.6045V5.76203H18.881V5.19611H15.0739C15.0089 4.87565 14.8351 4.58752 14.5819 4.38057C14.3288 4.17361 14.0118 4.06055 13.6848 4.06055C13.3579 4.06055 13.0409 4.17361 12.7878 4.38057C12.5346 4.58752 12.3608 4.87565 12.2958 5.19611H8.4887V5.76203H6.7395V18.7267H20.6045V14.2765H21.5819V14.1479C21.8157 14.0865 22.0229 13.95 22.1716 13.7595C22.3203 13.569 22.4023 13.3349 22.4051 13.0932C22.4005 12.8752 22.3384 12.6622 22.225 12.4759V6.81669ZM15.5884 6.97103V11.4469H11.7813V6.97103H15.5884ZM7.35687 6.97103H11.1639V11.4469H7.35687V6.97103ZM18.7781 17.1318H8.28291V14.8939H18.7781V17.1318ZM20.0385 11.4469H16.2315V6.97103H20.0385V11.4469ZM34.6238 8.23146C34.8682 8.16359 35.0789 8.00786 35.2155 7.79416H35.1898V6.3022H33.6978V6.7395H34.6496V7.63982C34.5409 7.74618 34.4087 7.82548 34.2637 7.87133C34.0889 7.9258 33.9066 7.95185 33.7235 7.9485C33.5589 7.95662 33.3948 7.92317 33.2465 7.85125C33.0981 7.77932 32.9703 7.67123 32.8746 7.53693C32.655 7.21124 32.5467 6.82318 32.566 6.43082V6.09641C32.5442 5.70738 32.643 5.32111 32.8489 4.9903C32.9427 4.86208 33.0673 4.75953 33.2112 4.6921C33.355 4.62467 33.5135 4.59453 33.6721 4.60445C33.9103 4.58653 34.1461 4.66268 34.3288 4.81656C34.5115 4.97044 34.6267 5.1898 34.6496 5.4276H35.1898C35.1338 5.07334 34.9619 4.74765 34.701 4.50156C34.4135 4.26253 34.0452 4.14285 33.6721 4.16715C33.4409 4.1548 33.2098 4.19462 32.9961 4.28368C32.7823 4.37273 32.5914 4.50874 32.4373 4.68162C32.1259 5.095 31.9709 5.60537 32.0001 6.12214V6.48227C32.0038 6.82947 32.0828 7.17174 32.2316 7.48548C32.371 7.76574 32.5884 7.99977 32.8576 8.15948C33.1268 8.31919 33.4364 8.39778 33.7492 8.3858C34.048 8.39128 34.345 8.33887 34.6238 8.23146ZM36.7519 8.31672C36.9252 8.38781 37.1119 8.4202 37.299 8.41161C37.5299 8.42682 37.7602 8.374 37.9613 8.2597C38.1625 8.1454 38.3258 7.97464 38.4309 7.76853L38.1222 7.51129C38.0304 7.63366 37.9171 7.73827 37.7878 7.81997C37.6083 7.91163 37.4042 7.9436 37.2052 7.91121C37.0063 7.87882 36.8229 7.78378 36.6817 7.63991C36.5097 7.43996 36.418 7.18331 36.4244 6.91965H38.508V6.71386C38.5269 6.30973 38.4091 5.91103 38.1736 5.58203C38.0585 5.45193 37.9153 5.34962 37.7549 5.28279C37.5945 5.21596 37.4211 5.18635 37.2476 5.19618C37.0099 5.20165 36.7784 5.27288 36.5788 5.40197C36.3709 5.54648 36.2027 5.74113 36.09 5.96788C35.9641 6.2236 35.9023 6.50611 35.91 6.79103V6.89393C35.8907 7.29866 36.029 7.69511 36.2958 8.00004C36.423 8.13755 36.5787 8.24563 36.7519 8.31672ZM36.9278 5.7191C37.0207 5.67928 37.1208 5.6589 37.2219 5.6592C37.3211 5.65525 37.4202 5.67145 37.513 5.70682C37.6059 5.74218 37.6906 5.79599 37.7621 5.86499C37.8912 6.04541 37.9629 6.26056 37.9679 6.48235V6.5338H36.4244C36.4293 6.29532 36.5207 6.06675 36.6817 5.89071C36.7512 5.81732 36.8349 5.75891 36.9278 5.7191ZM39.82 4.55307V5.27332H40.3859V5.6849H39.82V7.58844C39.8144 7.68863 39.8414 7.78793 39.8972 7.87139C39.9267 7.91017 39.9663 7.94022 40.0116 7.95833C40.0569 7.97645 40.1062 7.98196 40.1544 7.97429C40.2409 7.97619 40.3272 7.96755 40.4116 7.94856V8.36014C40.2763 8.38992 40.1385 8.40714 40 8.41159C39.9008 8.41554 39.8017 8.39934 39.7089 8.36397C39.616 8.3286 39.5313 8.2748 39.4598 8.2058C39.3245 8.03988 39.2598 7.82737 39.2798 7.61416V5.71062H38.7139V5.29905H39.2798V4.55307H39.82ZM42.5208 4.21856V8.33432H43.9613C44.3301 8.35796 44.6953 8.24842 44.9902 8.02564C45.1092 7.91404 45.2029 7.77823 45.2651 7.62737C45.3272 7.47651 45.3563 7.31408 45.3503 7.15104C45.3491 6.92862 45.277 6.71238 45.1446 6.53368C45.0164 6.34971 44.8234 6.22105 44.6044 6.17355C44.7798 6.10745 44.9319 5.99114 45.0417 5.83914C45.1427 5.6866 45.1964 5.50762 45.196 5.32467C45.2088 5.17084 45.1852 5.01615 45.1271 4.87314C45.069 4.73013 44.9781 4.60282 44.8616 4.50152C44.568 4.29822 44.215 4.19865 43.8584 4.21856H42.5208ZM43.8841 5.96776H43.0609V4.65586H43.8584C44.0672 4.64103 44.2751 4.69526 44.45 4.8102C44.5205 4.86965 44.5758 4.94492 44.6116 5.02987C44.6474 5.11481 44.6625 5.20702 44.6558 5.29895C44.6632 5.39094 44.6483 5.48335 44.6125 5.5684C44.5767 5.65345 44.521 5.72866 44.45 5.78769C44.292 5.91906 44.089 5.98365 43.8841 5.96776ZM43.0609 7.89702V6.40506H43.987C44.5272 6.40506 44.7844 6.66229 44.7844 7.15104C44.7899 7.25281 44.7719 7.35448 44.7317 7.44816C44.6916 7.54184 44.6304 7.62501 44.5529 7.69123C44.3905 7.83512 44.1779 7.90908 43.9613 7.89702H43.0609ZM45.9164 6.79097C45.9087 6.50604 45.9705 6.22353 46.0964 5.96782C46.202 5.7364 46.3716 5.54002 46.5852 5.4019C46.8018 5.2684 47.051 5.19719 47.3054 5.19611C47.4943 5.19197 47.6819 5.22894 47.8551 5.30444C48.0283 5.37995 48.1831 5.4922 48.3086 5.63341C48.5798 5.95612 48.7178 6.37008 48.6945 6.79097V6.81669C48.7051 7.09366 48.643 7.36859 48.5144 7.61412C48.4028 7.84157 48.2345 8.03646 48.0257 8.18004C47.8143 8.32499 47.5615 8.39722 47.3054 8.38582C47.1165 8.38996 46.929 8.353 46.7557 8.27749C46.5825 8.20199 46.4278 8.08974 46.3022 7.94853C46.031 7.62582 45.893 7.21186 45.9164 6.79097ZM46.4308 6.84242C46.4172 7.13459 46.4984 7.42334 46.6623 7.66557C46.7354 7.76646 46.8325 7.84753 46.9447 7.90144C47.057 7.95534 47.181 7.98037 47.3054 7.97425C47.4295 7.97834 47.5528 7.95241 47.6648 7.89867C47.7767 7.84493 47.8741 7.76497 47.9485 7.66557C48.1191 7.40715 48.2005 7.09996 48.18 6.79097C48.1937 6.49879 48.1125 6.21004 47.9485 5.96782C47.8755 5.86692 47.7784 5.78585 47.6661 5.73195C47.5538 5.67805 47.4298 5.65302 47.3054 5.65914C47.1851 5.65595 47.0658 5.68244 46.9581 5.73628C46.8505 5.79011 46.7577 5.86963 46.6881 5.96782C46.4971 6.2175 46.4054 6.5291 46.4308 6.84242ZM49.8779 5.65924L49.8522 5.27339H49.3892V8.36021H49.9036V6.17371C49.9706 6.02701 50.0776 5.90218 50.2123 5.81358C50.3425 5.72908 50.4944 5.68438 50.6496 5.68497C50.7332 5.67847 50.8172 5.68878 50.8967 5.71529C50.9763 5.7418 51.0497 5.78397 51.1126 5.83931C51.1698 5.90624 51.213 5.98401 51.2395 6.06798C51.266 6.15195 51.2754 6.2404 51.267 6.32805V8.36021H51.7814V6.32805C51.7814 5.58207 51.447 5.22194 50.804 5.22194C50.6263 5.21813 50.4501 5.25564 50.2894 5.33153C50.1287 5.40742 49.9878 5.51961 49.8779 5.65924ZM54.4566 8.05133C54.3414 8.17275 54.2012 8.26781 54.0458 8.32997C53.8904 8.39213 53.7234 8.41993 53.5562 8.41146C53.4191 8.41876 53.2819 8.39737 53.1534 8.34864C53.025 8.29992 52.9081 8.22495 52.8103 8.1285C52.7137 8.01086 52.6412 7.87534 52.5971 7.72968C52.553 7.58402 52.538 7.43108 52.553 7.27962V5.27319H53.0675V7.2539C53.0675 7.71692 53.2476 7.94843 53.6334 7.94843C53.7953 7.9674 53.959 7.93548 54.102 7.85712C54.2449 7.77875 54.3598 7.65782 54.4308 7.51114V5.27319H54.9453V8.33429H54.4566V8.05133ZM57.509 7.35008C57.536 7.40853 57.5478 7.47282 57.5434 7.53704C57.541 7.64795 57.5051 7.75555 57.4405 7.84572C57.2929 7.93359 57.1235 7.97816 56.9518 7.97434C56.7678 7.98247 56.5864 7.92807 56.4373 7.82C56.3725 7.77294 56.32 7.71098 56.2841 7.63934C56.2483 7.56771 56.2303 7.4885 56.2315 7.40842H55.717C55.7167 7.59137 55.7704 7.77035 55.8714 7.92289C55.9796 8.08235 56.1314 8.20736 56.3087 8.28302C56.5118 8.37012 56.7308 8.41393 56.9518 8.41164C57.2541 8.41297 57.5499 8.32334 57.8006 8.1544C57.9085 8.0804 57.9958 7.9802 58.0543 7.86321C58.1128 7.74622 58.1406 7.61628 58.135 7.48559C58.1357 7.33841 58.0908 7.19463 58.0064 7.07402C57.9092 6.95384 57.7861 6.85712 57.6463 6.79106C57.4399 6.69967 57.2243 6.63067 57.0032 6.58527C56.8159 6.54955 56.6343 6.48899 56.463 6.40521C56.4127 6.37802 56.3713 6.33681 56.3439 6.28659C56.3165 6.23637 56.3043 6.17929 56.3087 6.12225C56.3043 6.05803 56.3161 5.99374 56.3431 5.93529C56.37 5.87685 56.4113 5.82614 56.463 5.78784C56.5915 5.69976 56.7446 5.65472 56.9003 5.65923C57.068 5.655 57.2318 5.70961 57.3633 5.81357C57.4213 5.85349 57.4683 5.90746 57.4998 5.97044C57.5312 6.03342 57.5463 6.10334 57.5434 6.1737H58.0579C58.0569 6.04042 58.0263 5.90903 57.9685 5.78895C57.9107 5.66887 57.827 5.56307 57.7235 5.47916C57.48 5.29547 57.1791 5.2043 56.8746 5.22193C56.578 5.20405 56.2851 5.29557 56.0514 5.47916C55.9546 5.55596 55.8765 5.65375 55.8231 5.76516C55.7696 5.87657 55.7421 5.99867 55.7428 6.12225C55.746 6.2572 55.7813 6.38946 55.8457 6.5081C55.9265 6.63355 56.043 6.73206 56.1801 6.79106C56.3864 6.88245 56.602 6.95144 56.8231 6.99685C57.0247 7.02266 57.218 7.09295 57.3891 7.20263C57.4408 7.24093 57.4821 7.29164 57.509 7.35008ZM60.0387 6.79097C60.031 6.50604 60.0928 6.22353 60.2187 5.96782C60.3243 5.7364 60.4939 5.54002 60.7075 5.4019C60.9241 5.2684 61.1733 5.19719 61.4277 5.19611C61.6167 5.19197 61.8042 5.22894 61.9774 5.30444C62.1507 5.37995 62.3054 5.4922 62.431 5.63341C62.7022 5.95612 62.8402 6.37008 62.8168 6.79097V6.81669C62.8275 7.09366 62.7654 7.36859 62.6368 7.61412C62.5251 7.84157 62.3568 8.03646 62.148 8.18004C61.9366 8.32499 61.6838 8.39722 61.4277 8.38582C61.2388 8.38996 61.0513 8.353 60.8781 8.27749C60.7048 8.20199 60.5501 8.08974 60.4245 7.94853C60.1533 7.62582 60.0153 7.21186 60.0387 6.79097ZM60.5789 6.84242C60.5652 7.13459 60.6464 7.42334 60.8104 7.66557C60.8834 7.76646 60.9805 7.84753 61.0928 7.90144C61.2051 7.95534 61.3291 7.98037 61.4535 7.97425C61.5776 7.97834 61.7009 7.95241 61.8128 7.89867C61.9248 7.84493 62.0221 7.76497 62.0966 7.66557C62.2672 7.40715 62.3485 7.09996 62.3281 6.79097C62.3417 6.49879 62.2605 6.21004 62.0966 5.96782C62.0235 5.86692 61.9264 5.78585 61.8142 5.73195C61.7019 5.67805 61.5779 5.65302 61.4535 5.65914C61.3331 5.65595 61.2139 5.68244 61.1062 5.73628C60.9985 5.79011 60.9058 5.86963 60.8361 5.96782C60.6451 6.2175 60.5535 6.5291 60.5789 6.84242ZM64.0256 5.65924L63.9999 5.27339H63.5369V8.36021H64.0513V6.17371C64.1183 6.02701 64.2253 5.90218 64.36 5.81358C64.4902 5.72908 64.6421 5.68438 64.7973 5.68497C64.8809 5.67847 64.9649 5.68878 65.0444 5.71529C65.124 5.7418 65.1974 5.78397 65.2603 5.83931C65.3176 5.90624 65.3607 5.98401 65.3872 6.06798C65.4137 6.15195 65.4231 6.2404 65.4147 6.32805V8.36021H65.9291V6.32805C65.9291 5.58207 65.5947 5.22194 64.9517 5.22194C64.774 5.21813 64.5978 5.25564 64.4371 5.33153C64.2764 5.40742 64.1355 5.51961 64.0256 5.65924ZM38.2251 16.4115C38.1222 17.2347 37.8392 17.852 37.3248 18.2893C36.7595 18.7487 36.0462 18.9864 35.3183 18.9581C34.9037 18.9712 34.4915 18.89 34.1127 18.7207C33.734 18.5514 33.3986 18.2984 33.1318 17.9806C32.5917 17.3376 32.3087 16.463 32.3087 15.3568V14.6109C32.2942 13.9639 32.4261 13.3219 32.6945 12.7331C32.9218 12.2113 33.3011 11.7701 33.783 11.4672C34.2648 11.1644 34.8268 11.0138 35.3955 11.0353C36.1135 10.9985 36.8167 11.2483 37.3505 11.7298C37.8628 12.235 38.1659 12.9147 38.1994 13.6334H37.1704C37.1363 13.1368 36.9371 12.666 36.6045 12.2958C36.4368 12.1478 36.2411 12.0352 36.029 11.9645C35.8169 11.8938 35.5927 11.8665 35.3698 11.8842C35.077 11.8698 34.7853 11.928 34.5205 12.0537C34.2557 12.1794 34.0261 12.3686 33.8521 12.6044C33.492 13.0932 33.3119 13.762 33.3119 14.6366V15.3826C33.2807 16.0795 33.46 16.7696 33.8264 17.3633C33.988 17.6012 34.2072 17.7943 34.4636 17.9247C34.72 18.0552 35.0051 18.1186 35.2926 18.1093C35.7543 18.1438 36.2124 18.0064 36.5788 17.7234C36.8875 17.4662 37.0675 17.0289 37.1704 16.3858H38.2251V16.4115ZM42.8552 18.2379C42.8654 18.4408 42.9088 18.6407 42.9838 18.8295V18.8038H44.0128V18.7266C43.8649 18.3233 43.795 17.8956 43.807 17.4662V14.8424C43.8066 14.5868 43.7539 14.334 43.6522 14.0995C43.5504 13.8651 43.4018 13.6539 43.2153 13.479C42.8552 13.1446 42.3407 12.9903 41.6719 12.9903C41.2813 12.9722 40.8923 13.0518 40.5401 13.2218C40.2254 13.3788 39.9454 13.5975 39.717 13.8649C39.5225 14.0956 39.4134 14.3863 39.4083 14.6881H40.3858C40.3898 14.5598 40.4247 14.4345 40.4874 14.3226C40.55 14.2106 40.6387 14.1154 40.7459 14.045C40.9992 13.8612 41.3081 13.7704 41.6205 13.7877C41.7835 13.7769 41.9471 13.7986 42.1017 13.8516C42.2562 13.9046 42.3987 13.9878 42.5208 14.0964C42.6248 14.2059 42.7057 14.3352 42.7588 14.4766C42.8118 14.618 42.8358 14.7687 42.8295 14.9196V15.3569H41.8777C41.0546 15.3569 40.4372 15.5112 39.9742 15.8456C39.7588 16.0059 39.5854 16.216 39.4689 16.4579C39.3525 16.6998 39.2964 16.9663 39.3054 17.2347C39.299 17.4638 39.3442 17.6915 39.4377 17.9007C39.5312 18.11 39.6706 18.2956 39.8456 18.4437C40.2271 18.7817 40.7256 18.9571 41.2346 18.9324C41.5379 18.9335 41.8381 18.8724 42.1168 18.753C42.3956 18.6335 42.6469 18.4582 42.8552 18.2379ZM42.2379 17.852C41.9711 18.0033 41.6699 18.083 41.3633 18.0836C41.0745 18.1017 40.7896 18.0098 40.5658 17.8263C40.4633 17.7374 40.3822 17.6264 40.3288 17.5016C40.2753 17.3769 40.2508 17.2416 40.2571 17.1061C40.2571 16.4115 40.8745 16.0514 42.0578 16.0514H42.8295V17.2347C42.7033 17.4984 42.4959 17.7147 42.2379 17.852ZM48.6431 17.3119C48.6462 17.1915 48.6197 17.0723 48.5659 16.9646C48.5121 16.8569 48.4326 16.7642 48.3344 16.6945C48.0217 16.4962 47.6714 16.3648 47.3054 16.3087C46.8962 16.2308 46.4986 16.1011 46.1222 15.9228C45.8663 15.7989 45.6453 15.6133 45.4791 15.3826C45.3422 15.1675 45.2707 14.9173 45.2733 14.6624C45.2739 14.4328 45.3276 14.2066 45.4303 14.0013C45.5329 13.796 45.6817 13.6173 45.8649 13.4791C46.2939 13.1358 46.8339 12.9619 47.3826 12.9903C47.9475 12.9583 48.505 13.1319 48.9517 13.4791C49.1397 13.6361 49.2903 13.833 49.3926 14.0554C49.4949 14.2779 49.5464 14.5204 49.5434 14.7653H48.5659C48.5652 14.6319 48.5349 14.5004 48.477 14.3803C48.4192 14.2601 48.3353 14.1544 48.2315 14.0707C47.9949 13.8718 47.6913 13.7706 47.3826 13.7878C47.0896 13.7664 46.7984 13.8484 46.5595 14.0193C46.4655 14.0929 46.389 14.1864 46.3356 14.2932C46.2822 14.4 46.2532 14.5173 46.2508 14.6366C46.2491 14.7431 46.2741 14.8484 46.3235 14.9427C46.373 15.0371 46.4452 15.1176 46.5337 15.1768C46.8453 15.3477 47.1852 15.461 47.5369 15.5112C47.9461 15.5891 48.3438 15.7188 48.7202 15.8971C48.9832 16.0209 49.2126 16.2062 49.389 16.4373C49.5492 16.6619 49.6306 16.9333 49.6205 17.209C49.6269 17.4497 49.5739 17.6882 49.4663 17.9036C49.3586 18.1189 49.1995 18.3044 49.0032 18.4437C48.538 18.7714 47.9767 18.9343 47.4083 18.9067C46.9936 18.9145 46.5818 18.8357 46.1993 18.6752C45.8681 18.5332 45.583 18.3016 45.3762 18.0064C45.1717 17.7316 45.0632 17.3972 45.0675 17.0547H46.045C46.0496 17.2035 46.0865 17.3497 46.1531 17.4829C46.2197 17.6161 46.3145 17.7333 46.4308 17.8264C46.7182 18.0225 47.0607 18.1217 47.4083 18.1093C47.7247 18.1222 48.0378 18.0417 48.3086 17.8778C48.4159 17.8294 48.5056 17.7491 48.5654 17.6478C48.6253 17.5465 48.6524 17.4292 48.6431 17.3119ZM51.0612 11.2153C50.962 11.3295 50.9072 11.4756 50.9068 11.6269C50.9043 11.6984 50.9167 11.7697 50.9433 11.8361C50.9699 11.9025 51.01 11.9627 51.0612 12.0127C51.1851 12.1125 51.3394 12.167 51.4985 12.167C51.6575 12.167 51.8119 12.1125 51.9358 12.0127C51.9884 11.9638 52.0295 11.9039 52.0562 11.8371C52.0829 11.7704 52.0945 11.6986 52.0901 11.6269C52.0945 11.5513 52.083 11.4757 52.0565 11.4048C52.0299 11.3339 51.9888 11.2694 51.9358 11.2153C51.8779 11.1602 51.809 11.1179 51.7336 11.0913C51.6583 11.0647 51.5781 11.0544 51.4985 11.061C51.4185 11.0482 51.3366 11.0557 51.2602 11.0826C51.1838 11.1096 51.1154 11.1552 51.0612 11.2153ZM50.984 18.8295H51.9615V13.1189H50.984V18.8295ZM54.431 13.119L54.4567 13.8393C54.6557 13.5789 54.9129 13.3689 55.2078 13.2259C55.5026 13.083 55.8269 13.0111 56.1545 13.0161C57.3635 13.0161 57.9809 13.6849 57.9809 15.0483V18.8296H57.0034V15.0483C57.0297 14.7228 56.9282 14.3998 56.7204 14.1479C56.5403 13.9422 56.2574 13.865 55.8458 13.865C55.5502 13.8553 55.2601 13.946 55.0227 14.1222C54.7818 14.2952 54.5874 14.5249 54.4567 14.791V18.8296H53.4792V13.119H54.431ZM59.5498 14.4052C59.3186 14.8771 59.2039 15.3975 59.2154 15.9229H59.2411V15.9743C59.2018 16.7516 59.4592 17.5148 59.9614 18.1094C60.3764 18.5317 60.9202 18.8038 61.5071 18.883C62.0939 18.9622 62.6904 18.8439 63.2025 18.5467C63.598 18.3006 63.9114 17.9424 64.1028 17.5177C64.3161 17.0498 64.4216 16.5399 64.4115 16.0258V15.9486C64.4509 15.1713 64.1934 14.4082 63.6913 13.8136C63.4579 13.5486 63.168 13.3393 62.843 13.2013C62.518 13.0633 62.1662 13 61.8135 13.0161C61.3432 13.013 60.8809 13.1375 60.4758 13.3763C60.0729 13.621 59.7508 13.9788 59.5498 14.4052ZM60.6302 17.5692C60.3224 17.1247 60.1688 16.5916 60.1929 16.0515C60.1669 15.4593 60.329 14.874 60.6559 14.3795C60.7863 14.196 60.9605 14.0481 61.1627 13.9492C61.3649 13.8504 61.5886 13.8037 61.8135 13.8136C62.0435 13.8113 62.2707 13.8638 62.4765 13.9667C62.6822 14.0695 62.8605 14.2198 62.9967 14.4052C63.301 14.8513 63.4542 15.3832 63.434 15.9229C63.4644 16.4958 63.3112 17.0636 62.9967 17.5435C62.8625 17.7309 62.6846 17.8827 62.4784 17.9858C62.2722 18.0889 62.0439 18.1401 61.8135 18.1351C61.5849 18.1451 61.3575 18.0987 61.1511 18C60.9448 17.9013 60.7659 17.7533 60.6302 17.5692ZM9.55699 7.76613C9.64581 7.79446 9.72595 7.82002 9.85209 7.82002C10.0782 7.79555 10.3019 7.75253 10.5209 7.69141L10.8296 7.94864C10.8296 7.94864 10.2122 8.74607 10.0836 9.36343C9.95498 9.98079 9.87781 10.8297 9.87781 10.8297H8.30868C8.30276 10.5777 8.36497 10.3289 8.48875 10.1094C8.76262 9.63693 9.13029 9.22548 9.56913 8.90041C9.56913 8.90041 9.28617 8.92613 9.05466 8.92613C8.83898 8.91552 8.62283 8.93282 8.41157 8.97758C8.29818 9.0227 8.20086 9.10069 8.1321 9.20153C8.06335 9.30237 8.0263 9.42145 8.02572 9.5435H7.71704V7.69141H8V7.97436C8.34252 7.82242 8.70736 7.72686 9.08038 7.69141C9.32274 7.69141 9.44658 7.73091 9.55699 7.76613ZM14.2508 7.82002C14.1246 7.82002 14.0445 7.79446 13.9557 7.76613C13.8453 7.73091 13.7214 7.69141 13.4791 7.69141C13.106 7.72686 12.7412 7.82242 12.3987 7.97436V7.69141H12.1157V9.5435H12.4244C12.425 9.42145 12.462 9.30237 12.5308 9.20153C12.5995 9.10069 12.6969 9.0227 12.8103 8.97758C13.0215 8.93282 13.2377 8.91552 13.4533 8.92613C13.6849 8.92613 13.9678 8.90041 13.9678 8.90041C13.529 9.22548 13.1613 9.63693 12.8874 10.1094C12.7637 10.3289 12.7014 10.5777 12.7074 10.8297H14.2765C14.2765 10.8297 14.3537 9.98079 14.4823 9.36343C14.6109 8.74607 15.2283 7.94864 15.2283 7.94864L14.9196 7.69141C14.7005 7.75253 14.4769 7.79555 14.2508 7.82002ZM16.981 9.17565C16.9122 9.27649 16.8752 9.39557 16.8746 9.51762H16.5659V7.66553H16.8232V7.94849C17.1657 7.79654 17.5305 7.70098 17.9035 7.66553C18.1459 7.66553 18.2697 7.70503 18.3802 7.74025C18.469 7.76858 18.5491 7.79414 18.6752 7.79414C18.9111 7.77916 19.1442 7.73598 19.3698 7.66553L19.6785 7.92276C19.6785 7.92276 19.0611 8.72019 18.9325 9.33755C18.8039 9.95492 18.7267 10.8038 18.7267 10.8038H17.1576C17.1516 10.5519 17.2138 10.303 17.3376 10.0835C17.6115 9.61105 17.9792 9.19961 18.418 8.87453C18.418 8.87453 18.1351 8.90025 17.9035 8.90025C17.6879 8.88965 17.4717 8.90694 17.2605 8.9517C17.1471 8.99683 17.0497 9.07481 16.981 9.17565Z" fill="white"/>
</g>
<defs>
<clipPath id="clip0">
<rect width="82" height="24" fill="white"/>
</clipPath>
</defs>
</svg>
