<svg width="82" height="24" viewBox="0 0 82 24" fill="none" xmlns="http://www.w3.org/2000/svg">
<path d="M78.6731 23.7143H3.32488C1.71929 23.7714 0.343063 22.4571 0.285721 20.8571V20.8V3.19999C0.343063 1.54285 1.66194 0.285706 3.32488 0.285706H78.7305C80.3934 0.285706 81.7123 1.54285 81.7696 3.19999V20.8C81.7123 22.4571 80.3361 23.7143 78.6731 23.7143Z" fill="black"/>
<path d="M78.9035 0.571429C80.2797 0.571429 81.4266 1.71429 81.4266 3.08571V20.9714C81.4266 22.3429 80.2797 23.4857 78.9035 23.4857H3.0965C1.72028 23.4286 0.630769 22.2857 0.573427 20.9143V3.08571C0.573427 1.71429 1.72028 0.571429 3.0965 0.571429H78.9035ZM78.9608 0H3.03916C1.37622 0 0.0573427 1.31429 0 2.97143V20.9714C0 22.6286 1.37622 24 3.03916 24H78.9608C80.6238 24 81.9426 22.6857 82 21.0286V2.97143C81.9426 1.31429 80.6238 0 78.9608 0Z" fill="#A6A6A6"/>
<path d="M29.4742 6.85713C29.4742 7.31428 29.3595 7.71428 29.0728 7.99999C28.7287 8.34285 28.3273 8.51428 27.8112 8.51428C27.2951 8.51428 26.8937 8.34285 26.5497 7.99999C26.2056 7.65713 26.0336 7.25713 26.0336 6.74285C26.0336 6.22856 26.2056 5.82856 26.5497 5.4857C26.8937 5.14285 27.2951 4.97142 27.8112 4.97142C28.0406 4.97142 28.27 5.02856 28.4993 5.14285C28.7287 5.25713 28.9007 5.37142 29.0154 5.54285L28.7287 5.82856C28.4993 5.54285 28.2126 5.42856 27.8112 5.42856C27.4672 5.42856 27.1231 5.54285 26.8937 5.82856C26.607 6.05713 26.4923 6.39999 26.4923 6.79999C26.4923 7.19999 26.607 7.54285 26.8937 7.77142C27.1805 7.99999 27.4672 8.17142 27.8112 8.17142C28.2126 8.17142 28.4993 8.05713 28.786 7.77142C28.9581 7.59999 29.0728 7.37142 29.0728 7.0857H27.8112V6.62856H29.4742V6.85713ZM32.0546 5.42856H30.5063V6.51428H31.9399V6.91428H30.5063V7.99999H32.0546V8.45713H30.1049V5.02856H32.1119L32.0546 5.42856ZM33.8895 8.39999H33.4308V5.42856H32.456V5.02856H34.807V5.42856H33.8322V8.39999H33.8895ZM36.5273 8.39999V5.02856H36.986V8.39999H36.5273ZM38.8784 8.39999H38.4196V5.42856H37.4448V5.02856H39.7385V5.42856H38.7637L38.8784 8.39999ZM44.2686 7.94285C43.9245 8.2857 43.5231 8.45713 43.007 8.45713C42.4909 8.45713 42.0895 8.2857 41.7455 7.94285C41.4014 7.59999 41.2294 7.19999 41.2294 6.6857C41.2294 6.17142 41.4014 5.77142 41.7455 5.42856C42.0895 5.0857 42.4909 4.91428 43.007 4.91428C43.5231 4.91428 43.9245 5.0857 44.2686 5.42856C44.6126 5.77142 44.7846 6.17142 44.7846 6.6857C44.7846 7.19999 44.6126 7.65713 44.2686 7.94285ZM42.0895 7.71428C42.3189 7.94285 42.663 8.11428 43.007 8.11428C43.3511 8.11428 43.6951 7.99999 43.9245 7.71428C44.1539 7.4857 44.3259 7.14285 44.3259 6.74285C44.3259 6.34285 44.2112 5.99999 43.9245 5.77142C43.6951 5.54285 43.3511 5.37142 43.007 5.37142C42.663 5.37142 42.3189 5.4857 42.0895 5.77142C41.8602 5.99999 41.6881 6.34285 41.6881 6.74285C41.6881 7.14285 41.8028 7.4857 42.0895 7.71428ZM45.3581 8.39999V5.02856H45.8742L47.5371 7.65713V5.02856H47.9958V8.39999H47.5371L45.7595 5.65713V8.39999H45.3581Z" fill="#FEFEFE"/>
<path d="M29.5315 6.85712C29.5315 7.08569 29.4742 7.31426 29.4168 7.48569C29.3595 7.65712 29.2448 7.88569 29.0728 7.99998C28.9007 8.17141 28.7287 8.28569 28.4993 8.39998C28.27 8.51426 28.0406 8.51426 27.8112 8.51426C27.5819 8.51426 27.2951 8.45712 27.1231 8.39998C26.8937 8.28569 26.7217 8.17141 26.5497 7.99998C26.3777 7.82855 26.263 7.65712 26.1483 7.42855C26.0336 7.19998 26.0336 6.97141 26.0336 6.74283C26.0336 6.51426 26.0909 6.22855 26.1483 6.05712C26.2056 5.88569 26.3777 5.65712 26.5497 5.48569C26.7217 5.31426 26.8937 5.19998 27.1231 5.08569C27.3525 4.9714 27.5819 4.97141 27.8112 4.97141C27.9259 4.97141 28.0406 4.97141 28.1553 5.02855C28.27 5.02855 28.3846 5.08569 28.4993 5.14283C28.614 5.19998 28.7287 5.25712 28.786 5.31426C28.9007 5.37141 28.9581 5.42855 29.0154 5.54283V5.59998L28.6714 5.94283V5.88569C28.5567 5.77141 28.442 5.65712 28.3273 5.59998C28.2126 5.54283 28.0406 5.48569 27.8112 5.48569C27.6392 5.48569 27.4672 5.54283 27.2951 5.59998C27.1805 5.65712 27.0084 5.77141 26.9511 5.88569C26.8364 5.99998 26.7217 6.11426 26.6644 6.28569C26.607 6.45712 26.5497 6.62855 26.5497 6.79998C26.5497 6.97141 26.5497 7.19998 26.6644 7.31426C26.7217 7.48569 26.8364 7.59998 26.9511 7.71426C27.0658 7.82855 27.2378 7.94283 27.3525 7.99998C27.4672 8.05712 27.6392 8.11426 27.8112 8.11426C27.9832 8.11426 28.1553 8.05712 28.3273 7.99998C28.4993 7.94283 28.614 7.82855 28.7287 7.71426C28.786 7.65712 28.9007 7.54283 28.9007 7.42855C28.9581 7.31426 28.9581 7.25712 28.9581 7.14283H27.6965V6.57141H29.4742V6.85712H29.5315ZM29.3021 7.42855C29.3595 7.25712 29.4168 7.02855 29.4168 6.79998V6.62855H27.8686V6.97141H29.1301V7.02855C29.1301 7.14283 29.1301 7.31426 29.0728 7.42855C29.0154 7.54283 28.9581 7.65712 28.8434 7.77141C28.6714 7.94283 28.5567 7.99998 28.3846 8.11426C28.2126 8.17141 28.0406 8.22855 27.8686 8.22855C27.6965 8.22855 27.5245 8.17141 27.3525 8.11426C27.1805 8.05712 27.0658 7.94283 26.8937 7.82855C26.7791 7.71426 26.6644 7.59998 26.607 7.42855C26.5497 7.25712 26.4923 7.08569 26.4923 6.85712C26.4923 6.62855 26.5497 6.45712 26.607 6.28569C26.6644 6.11426 26.7791 5.99998 26.8937 5.88569C27.0084 5.77141 27.1231 5.65712 27.2951 5.59998C27.4672 5.54283 27.6392 5.48569 27.8112 5.48569C28.0406 5.48569 28.2126 5.54283 28.3273 5.59998C28.442 5.65712 28.614 5.77141 28.6714 5.88569L28.9007 5.65712C28.8434 5.59998 28.786 5.54283 28.7287 5.48569C28.6714 5.42855 28.5567 5.37141 28.442 5.31426C28.3273 5.25712 28.2126 5.19998 28.0979 5.19998C27.9832 5.14283 27.8686 5.14283 27.7539 5.14283C27.5245 5.14283 27.2951 5.19998 27.0658 5.25712C26.8937 5.31426 26.6644 5.48569 26.5497 5.59998C26.3777 5.77141 26.263 5.94283 26.2056 6.11426C26.1483 6.28569 26.0909 6.51426 26.0909 6.79998C26.0909 7.02855 26.1483 7.25712 26.2056 7.48569C26.263 7.65712 26.435 7.88569 26.5497 7.99998C26.7217 8.17141 26.8937 8.28569 27.0658 8.34283C27.2378 8.39998 27.4672 8.45712 27.7539 8.45712C27.9833 8.45712 28.2126 8.39998 28.442 8.34283C28.614 8.28569 28.8434 8.11426 28.9581 7.99998C29.1301 7.77141 29.2448 7.65712 29.3021 7.42855ZM32.0546 5.48569H30.5637V6.45712H31.9972V6.97141H30.5637V7.94283H32.1119V8.51426H30.0476C30.0476 7.37141 30.0476 6.17141 30.0476 5.02855H32.1119L32.0546 5.48569ZM30.5063 5.3714H31.9972V5.08569H30.1049V8.34283H31.9399V7.99998H30.3916V6.85712H31.8252V6.57141H30.3916L30.5063 5.3714ZM33.8895 8.45712H33.3735V5.48569H32.3986V4.97141H34.8644V5.48569H33.8895V8.45712ZM33.4881 8.34283H33.8322V5.3714H34.807V5.08569H32.5707V5.3714H33.5455V8.34283H33.4881ZM36.47 8.39998V4.97141H37.0434C37.0434 6.11426 37.0434 7.31426 37.0434 8.45712L36.47 8.39998ZM36.5846 5.08569V8.34283H36.9287V5.08569H36.5846ZM38.8784 8.45712H38.3623V5.48569H37.3874V4.97141H39.7958V5.48569H38.821V8.34283V8.45712H38.8784ZM38.477 8.34283H38.7637V5.3714H39.7385V5.08569H37.5595V5.3714H38.5343V8.34283H38.477ZM44.2686 7.99998C44.0965 8.17141 43.9245 8.28569 43.6951 8.39998C43.4658 8.51426 43.2364 8.51426 43.007 8.51426C42.7777 8.51426 42.4909 8.45712 42.3189 8.39998C42.0895 8.28569 41.9175 8.17141 41.7455 7.99998C41.5735 7.82855 41.4588 7.65712 41.3441 7.42855C41.2294 7.19998 41.2294 6.97141 41.2294 6.74283C41.2294 6.51426 41.2867 6.22855 41.3441 6.05712C41.4588 5.82855 41.5735 5.65712 41.7455 5.48569C41.9175 5.31426 42.0895 5.19998 42.3189 5.08569C42.5483 4.9714 42.7777 4.97141 43.007 4.97141C43.2364 4.97141 43.5231 5.02855 43.6951 5.08569C43.9245 5.19998 44.0965 5.31426 44.2686 5.48569C44.4406 5.65712 44.5553 5.82855 44.67 6.05712C44.7846 6.28569 44.7846 6.51426 44.7846 6.74283C44.7846 6.97141 44.7273 7.25712 44.67 7.42855C44.6126 7.65712 44.4406 7.82855 44.2686 7.99998ZM43.6951 8.28569C43.8672 8.22855 44.0965 8.05712 44.2112 7.94283C44.3832 7.7714 44.4979 7.59998 44.5553 7.42855C44.6126 7.25712 44.67 7.02855 44.67 6.74283C44.67 6.45712 44.6126 6.28569 44.5553 6.05712C44.4979 5.88569 44.3259 5.65712 44.2112 5.54283C44.0392 5.37141 43.8672 5.25712 43.6951 5.19998C43.5231 5.14283 43.2937 5.08569 43.007 5.08569C42.7777 5.08569 42.5483 5.14283 42.3189 5.19998C42.1469 5.25712 41.9175 5.42855 41.8028 5.54283C41.6308 5.71426 41.5161 5.88569 41.4588 6.05712C41.3441 6.28569 41.2867 6.45712 41.2867 6.74283C41.2867 6.97141 41.3441 7.19998 41.4014 7.42855C41.4588 7.59998 41.6308 7.82855 41.7455 7.94283C41.9175 8.11426 42.0895 8.22855 42.2616 8.28569C42.4336 8.34283 42.663 8.39998 42.9497 8.39998C43.2364 8.39998 43.4658 8.39998 43.6951 8.28569ZM42.1469 7.65712C42.2616 7.7714 42.3763 7.88569 42.5483 7.94283C42.7203 7.99998 42.835 7.99998 43.007 7.99998C43.1791 7.99998 43.3511 7.94283 43.5231 7.88569C43.6378 7.82855 43.8098 7.71426 43.8672 7.59998C43.9818 7.48569 44.0965 7.37141 44.1539 7.19998C44.2112 7.02855 44.2686 6.85712 44.2686 6.68569C44.2686 6.51426 44.2112 6.28569 44.1539 6.17141C44.0965 5.99998 43.9818 5.88569 43.8672 5.77141C43.7525 5.65712 43.6378 5.54283 43.4658 5.48569C43.3511 5.42855 43.1791 5.3714 43.007 5.3714C42.835 5.3714 42.663 5.42855 42.4909 5.48569C42.3763 5.54283 42.2042 5.65712 42.1469 5.77141C42.0322 5.88569 41.9175 6.05712 41.8602 6.17141C41.8028 6.34283 41.7455 6.45712 41.7455 6.68569C41.7455 6.85712 41.8028 7.08569 41.8602 7.19998C41.9175 7.42855 42.0322 7.54283 42.1469 7.65712ZM42.4909 8.05712C42.3189 7.99998 42.1469 7.88569 42.0322 7.77141C41.9175 7.65712 41.8028 7.48569 41.7455 7.37141C41.6881 7.19998 41.6308 7.02855 41.6308 6.79998C41.6308 6.62855 41.6881 6.39998 41.7455 6.28569C41.8028 6.11426 41.9175 5.94283 42.0322 5.82855C42.1469 5.71426 42.2616 5.59998 42.4336 5.54283C42.6056 5.48569 42.7777 5.42855 42.9497 5.42855C43.1217 5.42855 43.2937 5.48569 43.4658 5.54283C43.6378 5.59998 43.8098 5.71426 43.9245 5.82855C44.0392 5.94283 44.1539 6.05712 44.2112 6.22855C44.2686 6.39998 44.3259 6.5714 44.3259 6.79998C44.3259 6.97141 44.2686 7.19998 44.2112 7.31426C44.1539 7.48569 44.0392 7.65712 43.9245 7.77141C43.8098 7.88569 43.6951 7.99998 43.5231 8.05712C43.3511 8.11426 43.1791 8.17141 43.007 8.17141C42.835 8.11426 42.663 8.11426 42.4909 8.05712ZM45.3007 8.39998V4.97141H45.8742L47.4224 7.48569V4.97141H47.9958C47.9958 6.11426 47.9958 7.31426 47.9958 8.45712H47.4798L45.8168 5.82855V8.45712L45.3007 8.39998ZM45.4154 5.08569V8.34283H45.7021V5.48569L47.5371 8.39998H47.8812V5.08569H47.5944V7.88569L45.8742 5.08569H45.4154Z" fill="#FEFEFE"/>
<path d="M41.1147 13.3714C39.7385 13.3714 38.7063 14.4 38.7063 15.7714C38.7063 17.1428 39.7958 18.1714 41.1147 18.1714C42.4909 18.1714 43.5231 17.1428 43.5231 15.7714C43.5804 14.3428 42.4909 13.3714 41.1147 13.3714ZM41.1147 17.2C40.3692 17.2 39.7385 16.5714 39.7385 15.7143C39.7385 14.8571 40.3692 14.2285 41.1147 14.2285C41.8602 14.2285 42.4909 14.8 42.4909 15.7143C42.4909 16.5714 41.8602 17.2 41.1147 17.2ZM35.8965 13.3714C34.5203 13.3714 33.4881 14.4 33.4881 15.7714C33.4881 17.1428 34.5776 18.1714 35.8965 18.1714C37.2727 18.1714 38.3049 17.1428 38.3049 15.7714C38.3049 14.3428 37.2154 13.3714 35.8965 13.3714ZM35.8965 17.2C35.1511 17.2 34.5203 16.5714 34.5203 15.7143C34.5203 14.8571 35.1511 14.2285 35.8965 14.2285C36.642 14.2285 37.2727 14.8 37.2727 15.7143C37.2154 16.5714 36.642 17.2 35.8965 17.2ZM29.5888 14.1143V15.1428H31.9972C31.9399 15.7143 31.7105 16.1714 31.4238 16.4571C31.0797 16.8 30.5063 17.2 29.5888 17.2C28.0979 17.1428 26.9511 15.9428 26.9511 14.4571C26.9511 12.9714 28.1553 11.7714 29.5888 11.7714C30.3916 11.7714 31.0224 12.1143 31.4811 12.5143L32.2266 11.7714C31.5958 11.2 30.793 10.7428 29.7035 10.7428C27.6965 10.7428 25.9189 12.4571 25.9189 14.4571C25.9189 16.4571 27.6392 18.1714 29.7035 18.1714C30.8504 18.1714 31.5958 17.8285 32.2839 17.0857C32.972 16.4 33.2014 15.4285 33.2014 14.7428C33.2014 14.5143 33.2014 14.2857 33.1441 14.1143H29.5888ZM55.2783 14.9143C55.049 14.3428 54.4755 13.3714 53.214 13.3714C51.9525 13.3714 50.9776 14.3428 50.9776 15.7714C50.9776 17.1428 52.0098 18.1714 53.3287 18.1714C54.4182 18.1714 55.1063 17.4857 55.2783 17.0857L54.4755 16.5143C54.1888 16.9143 53.8448 17.2 53.2714 17.2C52.6979 17.2 52.3539 16.9714 52.0672 16.4571L55.2783 15.0857V14.9143ZM52.0098 15.7143C52.0098 14.8 52.7553 14.2857 53.2714 14.2857C53.6728 14.2857 54.0741 14.5143 54.1888 14.8L52.0098 15.7143ZM49.3147 18H50.4042V10.9714H49.3147V18ZM47.6518 13.8857C47.3651 13.6 46.9063 13.3143 46.3329 13.3143C45.1287 13.3143 44.0392 14.4 44.0392 15.7143C44.0392 17.0285 45.1287 18.0571 46.3329 18.0571C46.9063 18.0571 47.3651 17.7714 47.5944 17.4857H47.6518V17.8285C47.6518 18.7428 47.1357 19.2571 46.3329 19.2571C45.7021 19.2571 45.2434 18.8 45.1287 18.4L44.2686 18.8571C44.5553 19.4857 45.2434 20.2857 46.3902 20.2857C47.6518 20.2857 48.6266 19.5428 48.6266 17.8285V13.5428H47.5944V13.8857H47.6518ZM46.3902 17.2C45.6448 17.2 45.014 16.5714 45.014 15.7143C45.014 14.8571 45.6448 14.2285 46.3902 14.2285C47.1357 14.2285 47.7091 14.8571 47.7091 15.7143C47.7091 16.5714 47.1357 17.2 46.3902 17.2ZM60.2098 10.9714H57.6867V18H58.7762V15.3714H60.2672C61.4714 15.3714 62.5609 14.5143 62.5609 13.2C62.5609 11.8857 61.3567 10.9714 60.2098 10.9714ZM60.2672 14.3428H58.7189V11.9428H60.2672C61.07 11.9428 61.5287 12.6285 61.5287 13.1428C61.414 13.7143 60.9553 14.3428 60.2672 14.3428ZM66.7469 13.3143C65.9441 13.3143 65.1413 13.6571 64.8546 14.4L65.8294 14.8C66.0588 14.4 66.4028 14.2857 66.8042 14.2857C67.3776 14.2857 67.8937 14.6285 67.9511 15.2V15.2571C67.779 15.1428 67.3203 14.9714 66.8616 14.9714C65.8294 14.9714 64.8546 15.5428 64.8546 16.5714C64.8546 17.5428 65.7147 18.1714 66.6322 18.1714C67.3776 18.1714 67.7217 17.8285 68.0084 17.4857H68.0658V18.0571H69.0979V15.3714C68.8686 14.0571 67.8937 13.3143 66.7469 13.3143ZM66.6322 17.2C66.2881 17.2 65.7721 17.0285 65.7721 16.5714C65.7721 16 66.4028 15.8285 66.9189 15.8285C67.3776 15.8285 67.607 15.9428 67.8937 16.0571C67.779 16.7428 67.2056 17.2 66.6322 17.2ZM72.5385 13.4857L71.3343 16.5143H71.277L70.0154 13.4857H68.8686L70.7035 17.7714L69.614 20.1143H70.7035L73.5707 13.4857H72.5385ZM63.077 18H64.1665V10.9714H63.077V18Z" fill="#FEFEFE"/>
<path d="M8.54405 5.31427C8.37202 5.4857 8.31468 5.77141 8.31468 6.11427V18.5714C8.31468 18.9143 8.42937 19.2 8.6014 19.3714L8.65874 19.4286L15.6545 12.4571V12.3428L8.54405 5.31427Z" fill="#FEFEFE"/>
<path d="M18.2923 14.8L15.9986 12.5143V12.3428L18.2923 10.0571L18.3497 10.1143L21.1021 11.7143C21.9049 12.1714 21.9049 12.9143 21.1021 13.3714L18.2923 14.8Z" fill="#FEFEFE"/>
<path d="M18.1776 14.9143L15.7692 12.5714L8.71609 19.6C9.00281 19.8857 9.40421 19.8857 9.92029 19.6571L18.1776 14.9143Z" fill="#FEFEFE"/>
<path d="M18.1776 9.8857L9.92029 5.19999C9.40421 4.91427 9.00281 4.97142 8.71609 5.25713L15.7692 12.2286L18.1776 9.8857Z" fill="#FEFEFE"/>
<path d="M17.9475 14.6857L9.74749 19.2571C9.28874 19.5428 8.88735 19.4857 8.60063 19.2571L8.54329 19.3143L8.60063 19.3714C8.88735 19.6 9.28874 19.6571 9.74749 19.3714L17.9475 14.6857Z" fill="#FEFEFE" fill-opacity="0.2"/>
<path d="M8.54405 19.2571C8.37202 19.0857 8.31468 18.8 8.31468 18.4571V18.5143C8.31468 18.8571 8.42937 19.1428 8.54405 19.2571ZM20.758 13.0857L17.9482 14.6857L18.0056 14.7428L20.758 13.0857C21.1594 12.9143 21.3315 12.6285 21.3315 12.3428C21.3315 12.6285 21.1021 12.8571 20.758 13.0857Z" fill="#FEFEFE" fill-opacity="0.2"/>
</svg>
