<svg width="144" height="44" viewBox="0 0 144 44" fill="none" xmlns="http://www.w3.org/2000/svg">
<path fill-rule="evenodd" clip-rule="evenodd" d="M26.327 20.5331L27.8794 15.0482H35.0813C38.8748 15.0482 41.1889 13.318 42.2365 9.62215L42.8201 7.59767C44.1566 2.9043 41.9767 0 37.1765 0H5.81867L0 20.5331H26.327ZM37.1473 5.54377L35.9246 9.97231H29.3181L30.5728 5.55848L37.1473 5.54377ZM45.4959 20.5331L47.4248 17.1021H56.3454V20.5331H62.2224V0H50.7018L38.688 20.5331H45.4959ZM53.9088 5.5732H56.3454V12.1145H50.2174L53.9088 5.5732ZM86.6672 7.59767L86.1332 9.44559H86.1215C85.357 12.1675 83.9067 13.8094 81.7065 14.495L83.5448 20.5331H77.271L75.561 14.8717H71.7674L70.1625 20.5331H64.0549L69.8707 0H81.0119C85.8122 0 87.9949 2.84545 86.6672 7.59767ZM80.9857 5.54377H74.4112L73.1535 9.97231H79.7659L80.9857 5.54377ZM91.8644 20.5331L97.6801 0H91.5726L85.7539 20.5331H91.8644ZM47.5941 31.6765L54.4837 23.4668H62.3947L56.5789 43.9999H50.4684L53.8242 32.2591L48.1427 38.9829H44.2149L42.076 32.6358L38.8632 43.9999H12.5361L18.3548 23.4668H44.7694L47.5941 31.6765ZM70.5507 23.4668L58.5369 43.9999H65.3448L67.2736 40.566H76.1942V43.9999H82.0684V23.4668H70.5507ZM70.0779 35.5813L73.7576 29.04H76.1942V35.5813H70.0779ZM104.351 23.4668L102.693 29.3342H96.9594L92.804 43.9999H86.6965L90.8518 29.3342H84.1636L85.821 23.4668H104.351ZM110.809 29.3342H120.059L121.749 23.4668H111.885C108.092 23.4668 105.778 25.197 104.73 28.8929L102.577 36.4023C101.211 41.2133 103.42 43.9999 108.22 43.9999H115.901L117.558 38.1325H108.308L110.809 29.3342ZM135.435 30.7996L137.515 23.4668H143.623L137.804 43.9999H131.697L133.774 36.6671H126.791L124.714 43.9999H118.606L124.425 23.4668H130.532L128.455 30.7996H135.435Z" fill="#F8FF13"/>
</svg>
