<!-- Generated by IcoMoon.io -->
<svg version="1.1" xmlns="http://www.w3.org/2000/svg" width="32" height="32" viewBox="0 0 32 32">
<title>close</title>
<path d="M30.546 4.686c0.893-0.893 0.893-2.34 0-3.232s-2.34-0.893-3.232 0l-11.314 11.314-11.314-11.314c-0.893-0.893-2.34-0.893-3.232 0s-0.893 2.34 0 3.232l11.314 11.314-11.314 11.314c-0.893 0.893-0.893 2.34 0 3.232s2.34 0.893 3.232 0l11.314-11.314 11.314 11.314c0.893 0.893 2.34 0.893 3.232 0s0.893-2.34 0-3.232l-11.314-11.314 11.314-11.314z"></path>
</svg>
