<!-- Generated by IcoMoon.io -->
<svg version="1.1" xmlns="http://www.w3.org/2000/svg" width="32" height="32" viewBox="0 0 32 32">
<title>instagram</title>
<path d="M19.347 5.333c1.948 0 3.783 0.763 5.17 2.15s2.15 3.222 2.15 5.17v6.695c0 1.948-0.764 3.784-2.15 5.17s-3.222 2.15-5.17 2.15h-6.695c-1.948 0-3.784-0.763-5.17-2.15s-2.15-3.222-2.15-5.17v-6.695c0-1.948 0.763-3.784 2.15-5.17s3.222-2.15 5.17-2.15h6.695zM10.354 16c0 3.113 2.533 5.646 5.646 5.646s5.646-2.533 5.646-5.646c0-3.113-2.533-5.646-5.646-5.646s-5.646 2.533-5.646 5.646zM21.813 10.812c0.164 0 0.326-0.067 0.442-0.183s0.183-0.278 0.183-0.442c0-0.165-0.067-0.326-0.183-0.442s-0.278-0.183-0.442-0.183c-0.165 0-0.326 0.067-0.442 0.183s-0.183 0.277-0.183 0.442 0.067 0.326 0.183 0.442c0.116 0.116 0.277 0.183 0.442 0.183zM13.333 16c0-1.47 1.196-2.667 2.667-2.667s2.667 1.196 2.667 2.667c0 1.47-1.196 2.667-2.667 2.667s-2.667-1.196-2.667-2.667z"></path>
</svg>
