<!-- Generated by IcoMoon.io -->
<svg version="1.1" xmlns="http://www.w3.org/2000/svg" width="42" height="32" viewBox="0 0 42 32">
<title>mastercard</title>
<path d="M7.566 31.911v-2.080c0.081-0.72-0.484-1.28-1.209-1.36-0.081 0-0.081 0-0.161 0-0.484 0-0.967 0.16-1.209 0.64-0.242-0.4-0.645-0.64-1.129-0.64-0.403 0-0.806 0.16-0.967 0.48v-0.4h-0.726v3.36h0.726v-1.92c-0.081-0.4 0.242-0.8 0.726-0.88h0.081c0.484 0 0.726 0.32 0.726 0.88v1.92h0.726v-1.92c-0.081-0.4 0.242-0.8 0.726-0.88h0.081c0.484 0 0.726 0.32 0.726 0.88v1.92h0.887zM18.692 28.551h-1.209v-1.040h-0.806v1.040h-0.726v0.64h0.726v1.52c0 0.8 0.323 1.28 1.209 1.28 0.322 0 0.645-0.080 0.967-0.24l-0.242-0.64c-0.161 0.080-0.403 0.16-0.645 0.16-0.403 0-0.484-0.24-0.484-0.56v-1.52h1.209v-0.64zM24.98 28.471c-0.403 0-0.726 0.16-0.887 0.48v-0.4h-0.726v3.36h0.726v-1.92c0-0.56 0.242-0.88 0.726-0.88 0.161 0 0.322 0 0.484 0.080l0.242-0.72c-0.161 0-0.403 0-0.564 0zM15.467 28.791c-0.403-0.24-0.887-0.4-1.371-0.32-0.887 0-1.451 0.4-1.451 1.040 0 0.56 0.403 0.88 1.209 0.96l0.322 0.080c0.403 0.080 0.564 0.16 0.564 0.32s-0.242 0.4-0.806 0.4c-0.403 0-0.806-0.080-1.129-0.32l-0.322 0.56c0.403 0.32 0.967 0.48 1.451 0.4 0.967 0 1.532-0.48 1.532-1.12s-0.484-0.88-1.209-1.040l-0.322-0.080c-0.322 0-0.564-0.080-0.564-0.32s0.242-0.4 0.645-0.4c0.403 0 0.726 0.080 1.048 0.32l0.403-0.48zM35.3 28.471c-0.403 0-0.726 0.16-0.887 0.48v-0.4h-0.726v3.36h0.726v-1.92c0-0.56 0.242-0.88 0.726-0.88 0.161 0 0.323 0 0.484 0.080l0.242-0.72c-0.161 0-0.403 0-0.564 0zM25.786 30.231c0 0.96 0.726 1.76 1.693 1.76 0.081 0 0.081 0 0.161 0 0.484 0 0.887-0.16 1.209-0.4l-0.323-0.56c-0.242 0.16-0.564 0.32-0.887 0.32-0.564-0.080-1.048-0.56-0.968-1.2 0.081-0.56 0.484-0.96 0.968-0.96 0.322 0 0.645 0.080 0.887 0.32l0.323-0.56c-0.323-0.24-0.806-0.4-1.209-0.4-0.968-0.080-1.774 0.64-1.854 1.68 0-0.080 0-0.080 0 0zM32.72 30.231v-1.68h-0.726v0.4c-0.242-0.32-0.645-0.48-1.048-0.48-0.967 0.080-1.693 0.96-1.612 1.92 0.081 0.88 0.726 1.52 1.612 1.6 0.403 0 0.806-0.16 1.048-0.48v0.4h0.726v-1.68zM29.979 30.231c0-0.56 0.484-0.96 1.048-0.96s0.968 0.48 0.968 1.040c0 0.56-0.484 0.96-1.048 0.96s-0.967-0.4-0.967-1.040zM20.949 28.471c-0.968 0-1.774 0.8-1.774 1.76s0.806 1.76 1.774 1.76c0.484 0 1.048-0.16 1.371-0.48l-0.323-0.56c-0.242 0.24-0.645 0.32-0.967 0.32-0.484 0.080-0.968-0.32-1.048-0.8h2.58c0-0.080 0-0.16 0-0.24 0.081-0.88-0.564-1.68-1.451-1.76 0 0-0.081 0-0.161 0zM20.949 29.111c0.484 0 0.806 0.32 0.887 0.8h-1.774c0.081-0.48 0.484-0.8 0.887-0.8zM39.572 30.231v-3.040h-0.726v1.76c-0.242-0.32-0.645-0.48-1.048-0.48-0.968 0.080-1.693 0.96-1.612 1.92 0.081 0.88 0.726 1.52 1.612 1.6 0.403 0 0.806-0.16 1.048-0.48v0.4h0.726v-1.68zM36.831 30.231c0-0.56 0.484-0.96 1.048-0.96s0.967 0.48 0.967 1.040c0 0.56-0.484 0.96-1.048 0.96s-1.048-0.4-0.968-1.040zM11.759 30.231v-1.68h-0.726v0.4c-0.242-0.32-0.645-0.48-1.048-0.48-0.967 0.080-1.693 0.96-1.612 1.92 0.081 0.88 0.726 1.52 1.612 1.6 0.403 0 0.806-0.16 1.048-0.48v0.4h0.726v-1.68zM9.017 30.231c0-0.56 0.484-0.96 1.048-0.96s0.967 0.48 0.967 1.040c0 0.56-0.484 0.96-1.048 0.96-0.484 0-0.967-0.4-0.967-1.040z"></path>
<path d="M26.432 2.711h-11.206v20.080h11.206v-20.080z"></path>
<path d="M15.87 12.711c0-3.92 1.774-7.6 4.918-10-5.563-4.32-13.625-3.36-18.059 2.16-4.354 5.52-3.386 13.52 2.177 17.92 4.676 3.6 11.206 3.6 15.882 0-3.144-2.4-4.918-6.16-4.918-10.080z"></path>
<path d="M41.588 12.711c0 7.040-5.724 12.72-12.819 12.72-2.902 0-5.644-0.96-7.901-2.72 5.482-4.32 6.45-12.32 2.096-17.84-0.645-0.8-1.371-1.52-2.177-2.16 5.563-4.32 13.705-3.36 18.059 2.16 1.774 2.24 2.741 5.040 2.741 7.84z"></path>
</svg>
