<!-- Generated by IcoMoon.io -->
<svg version="1.1" xmlns="http://www.w3.org/2000/svg" width="134" height="32" viewBox="0 0 134 32">
<title>privat24</title>
<path d="M31.764 26.4h-4.15v-14.4h14.845v14.4h-4.15v-11.6h-6.624l0.080 11.6zM44.454 15.68v14.32h3.831v-4.88c1.277 1.36 3.352 1.44 3.831 1.44 3.592 0 5.826-2.32 5.826-5.6 0-3.44-2.235-5.68-5.746-5.68-0.878 0-2.634 0.16-4.070 1.68h-0.080v-1.28h-3.592zM48.125 20.88c0-2.96 1.836-3.52 2.953-3.52s2.953 0.56 2.953 3.52c0 1.84-0.798 3.52-2.953 3.52-2.235 0-2.953-1.68-2.953-3.52zM67.439 24.88c-1.437 1.28-2.793 1.68-4.23 1.68-4.070 0-4.23-3.040-4.23-4.32v-6.56h3.831v6.080c0 2.080 0.718 2.72 2.155 2.72 2.394 0 2.554-2.16 2.554-2.88v-5.92h3.831v10.48h-3.831l-0.080-1.28zM76.697 21.76h2.315c1.836 0 2.155 0.56 2.155 1.2 0 0.48-0.24 1.040-2.155 1.040h-2.394l0.080-2.24zM72.866 15.68v10.48h7.582c2.793 0 4.629-0.56 4.629-2.64 0-1.68-0.958-2.4-3.033-2.72v-0.080c1.357-0.16 2.554-1.040 2.554-2.48 0-2.56-3.033-2.56-4.15-2.56h-7.582zM76.697 17.76h2.075c1.117 0 1.995 0.16 1.995 1.040 0 0.96-1.437 0.96-2.075 0.96h-1.995v-2zM89.866 19.040c0-1.52 1.676-1.68 2.315-1.68 0.399 0 1.995 0 2.075 1.36v0.32c-0.080 1.040-1.038 0.8-3.911 1.2-2.314 0.32-4.709 0.88-4.709 3.28 0 0.88 0.399 3.040 4.39 3.040 1.516 0 3.272-0.4 4.23-1.44h0.080l0.319 1.040h3.991v-0.16c-0.718-0.16-0.798-0.88-0.718-2l0.080-4.8c0-1.2-0.080-3.92-5.826-3.92-1.357 0-5.826 0.16-5.986 3.76 0.080 0 3.671 0 3.671 0zM94.335 21.84c0 2.080-1.836 2.64-2.793 2.64-0.718 0-1.915-0.24-1.915-1.2 0-1.2 1.436-1.44 2.235-1.52 1.436-0.24 1.357-0.16 2.474-0.56 0-0.080 0 0.64 0 0.64zM98.485 17.76v-2.080h12.211v2.080h-4.23v8.4h-3.831v-8.4h-4.15z"></path>
<path d="M0 26.16h9.497v-9.44h-9.497v9.44z"></path>
<path d="M19.314 7.040v14.16h-1.916c-0.878-6.96-5.267-11.36-12.371-12.24v-1.92h14.286zM0 2.080v11.76h2.554c6.624 0 9.976 3.36 9.976 9.92v2.48h11.892v-24.16h-24.422z"></path>
<path d="M121.87 23.36v2.72h-10.375c0.080-1.040 0.479-2 1.037-2.96s1.676-2.16 3.352-3.68c1.357-1.28 2.155-2.080 2.474-2.56 0.399-0.64 0.638-1.2 0.638-1.84s-0.16-1.2-0.559-1.52c-0.319-0.32-0.878-0.56-1.436-0.56-0.639 0-1.117 0.16-1.437 0.56s-0.559 0.96-0.638 1.84l-2.953-0.32c0.16-1.6 0.718-2.8 1.676-3.52s2.075-1.040 3.432-1.040c1.516 0 2.713 0.4 3.591 1.2s1.277 1.84 1.277 3.040c0 0.72-0.16 1.36-0.399 2s-0.638 1.28-1.197 2c-0.319 0.48-1.038 1.12-1.916 2-0.958 0.88-1.516 1.44-1.756 1.68s-0.479 0.56-0.639 0.8h5.826v0.16z"></path>
<path d="M129.611 26.080v-3.12h-6.305v-2.56l6.704-9.84h2.474v9.84h1.916v2.64h-1.916v3.040h-2.873zM129.611 20.4v-5.28l-3.512 5.28h3.512z"></path>
</svg>
