<!-- Generated by IcoMoon.io -->
<svg version="1.1" xmlns="http://www.w3.org/2000/svg" width="138" height="32" viewBox="0 0 138 32">
<title>sportbank</title>
<path d="M-0.003 24.875h3.514v-3.253h-3.514v3.253zM5.008 24.875h3.514v-6.412h-3.514v6.412zM10.020 24.875h3.514v-9.572h-3.514v9.572zM15.031 24.875h3.514v-12.732h-3.514v12.732zM33.457 20.724c0-2.261-1.895-4.12-4.186-4.12h-2.689c-0.306 0-0.947-0.155-0.947-0.743 0-0.62 0.642-0.805 0.947-0.805h5.439v-2.974h-5.836c-2.231 0-4.064 1.797-4.064 3.996s1.833 3.996 4.064 3.996h2.72c0.367 0 1.069 0.186 1.069 0.929s-0.672 0.898-1.069 0.898h-5.684v2.974h6.050c2.292-0.031 4.186-1.89 4.186-4.151zM44.733 18.494c0 1.859-1.497 3.346-3.3 3.346-1.833 0-3.3-1.518-3.3-3.346s1.497-3.346 3.3-3.346c1.803-0.031 3.3 1.487 3.3 3.346zM48.247 18.494c0-3.81-3.056-6.908-6.814-6.908-1.803 0-3.422 0.712-4.645 1.859v-1.363h-2.2v19.919h3.514v-7.466c0.978 0.558 2.108 0.867 3.3 0.867 3.789 0 6.845-3.098 6.845-6.908zM59.309 18.494c0 1.859-1.497 3.346-3.3 3.346-1.833 0-3.331-1.518-3.331-3.346s1.497-3.346 3.331-3.346c1.833-0.031 3.3 1.487 3.3 3.346zM62.823 18.494c0-3.81-3.056-6.908-6.814-6.908s-6.814 3.098-6.814 6.908c0 3.81 3.056 6.908 6.814 6.908s6.814-3.098 6.814-6.908zM71.196 15.21h1.284v-3.562h-1.284c-1.803 0-3.422 0.712-4.645 1.859v-1.332h-2.2v12.763h3.514v-6.351c0-1.89 1.497-3.377 3.331-3.377zM77.246 15.117h2.72v-3.562h-2.72v-6.041h-3.514v19.33h3.514v-9.727zM91.608 18.494c0 1.859-1.497 3.346-3.3 3.346-1.833 0-3.3-1.518-3.3-3.346s1.497-3.346 3.3-3.346c1.833-0.031 3.3 1.487 3.3 3.346zM95.122 18.494c0-3.81-3.056-6.908-6.814-6.908-1.222 0-2.384 0.341-3.361 0.898v-12.484h-3.514v24.813h2.2v-1.301c1.222 1.177 2.872 1.89 4.675 1.89 3.759 0 6.814-3.098 6.814-6.908zM106.55 18.494c0 1.859-1.497 3.346-3.3 3.346-1.833 0-3.3-1.518-3.3-3.346s1.497-3.346 3.3-3.346c1.803-0.031 3.3 1.487 3.3 3.346zM107.865 24.813h2.2v-12.701h-2.2v1.332c-1.222-1.146-2.842-1.859-4.645-1.859-3.759 0-6.814 3.098-6.814 6.908s3.056 6.908 6.814 6.908c1.803 0 3.422-0.712 4.645-1.859v1.27zM119.904 24.844h3.514v-7.218c0-3.315-2.659-6.010-5.959-6.010-1.436 0-2.72 0.496-3.759 1.363v-0.898h-2.2v12.732h3.514v-7.249c0-1.363 1.1-2.478 2.445-2.478s2.444 1.115 2.444 2.478v7.28zM133.074 17.967l3.911-5.886h-4.247l-2.75 4.12h-1.528v-16.201h-3.514v24.813h3.514v-5.049h1.528l3.361 5.049h4.248l-4.523-6.846z"></path>
</svg>
