<!-- Generated by IcoMoon.io -->
<svg version="1.1" xmlns="http://www.w3.org/2000/svg" width="32" height="32" viewBox="0 0 32 32">
<title>telegram</title>
<path d="M26.654 5.885l-21.733 8.4c-1.467 0.533-1.467 1.467-0.267 1.733l5.467 1.733 2.133 6.4c0.267 0.667 0.133 0.933 0.8 0.933 0.533 0 0.8-0.267 1.067-0.533 0.133-0.133 1.333-1.333 2.667-2.667l5.6 4.133c1.067 0.533 1.733 0.267 2-0.933l3.733-17.467c0.4-1.467-0.533-2.267-1.467-1.733zM23.854 9.885l-10.4 9.467-0.4 4.4-2.133-6.4 12.267-7.733c0.533-0.4 1.067-0.133 0.667 0.267z"></path>
</svg>
