<!-- Generated by IcoMoon.io -->
<svg version="1.1" xmlns="http://www.w3.org/2000/svg" width="32" height="32" viewBox="0 0 32 32">
<title>tiktok</title>
<path d="M20 6.667v-1.333h-2.667v14.667c0 2.206-1.794 4-4 4s-4-1.794-4-4c0-2.206 1.794-4 4-4h1.333v-2.667h-1.333c-3.676 0-6.667 2.991-6.667 6.667s2.991 6.667 6.667 6.667c3.676 0 6.667-2.991 6.667-6.667v-8.013c1.116 0.841 2.498 1.346 4 1.346h1.333v-2.667h-1.333c-2.206 0-4-1.794-4-4z"></path>
<path d="M0 32h32v-32h-32v32zM2.667 2.667h26.667v26.667h-26.667v-26.667z"></path>
</svg>
