<!-- Generated by IcoMoon.io -->
<svg version="1.1" xmlns="http://www.w3.org/2000/svg" width="64" height="32" viewBox="0 0 64 32">
<title>visa</title>
<path d="M27.72 26.12h-5.2l3.2-20.080h5.2l-3.2 20.080z"></path>
<path d="M46.52 6.52c-1.52-0.56-3.040-0.88-4.64-0.88-5.12 0-8.72 2.72-8.72 6.64 0 2.88 2.56 4.48 4.56 5.44s2.72 1.6 2.72 2.48c0 1.36-1.6 2-3.12 2-1.68 0.080-3.36-0.32-4.88-1.040l-0.8-0.32-0.72 4.48c1.84 0.72 3.84 1.040 5.76 1.040 5.44 0 8.96-2.72 9.040-6.88 0-2.32-1.36-4-4.32-5.44-1.84-0.88-2.96-1.52-2.96-2.48s0.96-1.76 2.96-1.76c1.36 0 2.64 0.24 3.84 0.8l0.48 0.24 0.8-4.32z"></path>
<path d="M53.4 19l2.080-5.6c0 0 0.4-1.2 0.64-1.92l0.32 1.76c0 0 0.96 4.8 1.2 5.76h-4.24zM59.8 6.040h-4c-1.2-0.16-2.32 0.56-2.72 1.68l-7.68 18.4h5.44l1.12-3.040h6.64c0.16 0.72 0.64 3.040 0.64 3.040h4.8l-4.24-20.080z"></path>
<path d="M18.2 6.040l-5.040 13.68-0.56-2.8c-1.28-3.6-3.84-6.56-7.2-8.4l4.64 17.52h5.52l8.16-20h-5.52z"></path>
<path d="M8.36 6.040h-8.32l-0.080 0.4c6.48 1.68 10.8 5.68 12.56 10.48l-1.76-9.2c-0.32-1.28-1.2-1.6-2.4-1.68z"></path>
</svg>
